# xmcd CD database file
#
# Track frame offsets:
#	150
#	14774
#	37174
#	53321
#	82223
#	113059
#	137368
#	164193
#	191637
#	211497
#	241496
#	261842
#	286620
#	314396
#
# Disc length: 4362 seconds
#
# Revision: 2
# Processed by: cddbd v1.4PL0 Copyright (c) Steve Scherf et al.
# Submitted via: CDex 1.51
#
DISCID=cc11080e
DTITLE=Bamboleo - The Best of Bamboleo
DYEAR=2003
DGENRE=Salsa
TTITLE0=Shake Your Body
TTITLE1=Ka Cha Cha
TTITLE2=Opening
TTITLE3=Con un Canto en el Pecho
TTITLE4=Si No Hablaras Tanto
TTITLE5=La Tremenda
TTITLE6=Te Gusto o te Caigo Bien
TTITLE7=El Protagonista
TTITLE8=Kimbara Kimbara
TTITLE9=Yo No Me Parezco a Nadie
TTITLE10=Ya No Hace Falta
TTITLE11=Circulame
TTITLE12=Pelicula Vieja
TTITLE13=Openin Studio 10
EXTD=YEAR: 2003
EXTT0=
EXTT1=
EXTT2=
EXTT3=
EXTT4=
EXTT5=
EXTT6=
EXTT7=
EXTT8=
EXTT9=
EXTT10=
EXTT11=
EXTT12=
EXTT13=
PLAYORDER=
